# xmcd CD database file
#
# Track frame offsets:
#	150
#	16425
#	33162
#	48152
#	61615
#	77816
#	89886
#	108848
#	126044
#	150939
#	166994
#	184708
#	199878
#	226474
#	239003
#	253814
#	268637
#	283956
#	299386
#	315122
#
# Disc length: 4417 seconds
#
# Revision: 0
# Processed by: cddbd v1.5.1PL0 Copyright (c) Steve Scherf et al.
# Submitted via: Feurio! 1.67 - http://www.feurio.com
#
DISCID=11113f14
DTITLE=Various Artist - Die Cd nicht nur zur Christmas Party ....
DYEAR=2003
DGENRE=Pop
TTITLE0=Rick Astley - Sleeping
TTITLE1=John Paul Young - Love is in the air (2001 Mix)
TTITLE2=Oli P. - Girl you know is true
TTITLE3=Die Fetenkrachern - 1000 und 1 Nacht (2001 Mix)
TTITLE4=B3 - You win again
TTITLE5=Christian Franke - Ich wünsch dir die Hölle auf Erden
TTITLE6=Jürgen Drews - Hey, amigo Charly Brown
TTITLE7=Dj Ötzi - Love,Peace and Vollgas
TTITLE8=Mallorca Allstars - Allstars-Medley
TTITLE9=Wolfgang Petry - Ich will mehr
TTITLE10=Marco Kloß - Erna Schabulski
TTITLE11=Sandy Wagner - Frau Meyer
TTITLE12=Safri Duo - Samb´dagio
TTITLE13=Right said Fred - Mojive
TTITLE14=Hermes House Band - Country Roads
TTITLE15=King Africa - La Bomba
TTITLE16=Loonna - Viva el amor
TTITLE17=Xandra Hag - Schweigen hilft nie
TTITLE18=Shaggy - Angel
TTITLE19=Uncle Kracker - Follow me
EXTD=Matthias Lutz ShowService GmbH
EXTT0=Matthias Lutz ShowService GmbH
EXTT1=Matthias Lutz ShowService GmbH
EXTT2=Matthias Lutz ShowService GmbH
EXTT3=Matthias Lutz ShowService GmbH
EXTT4=Matthias Lutz ShowService GmbH
EXTT5=Matthias Lutz ShowService GmbH
EXTT6=Matthias Lutz ShowService GmbH
EXTT7=Matthias Lutz ShowService GmbH
EXTT8=Matthias Lutz ShowService GmbH
EXTT9=Matthias Lutz ShowService GmbH
EXTT10=Matthias Lutz ShowService GmbH
EXTT11=Matthias Lutz ShowService GmbH
EXTT12=Matthias Lutz ShowService GmbH
EXTT13=Matthias Lutz ShowService GmbH
EXTT14=Matthias Lutz ShowService GmbH
EXTT15=Matthias Lutz ShowService GmbH
EXTT16=Matthias Lutz ShowService GmbH
EXTT17=Matthias Lutz ShowService GmbH
EXTT18=Matthias Lutz ShowService GmbH
EXTT19=Matthias Lutz ShowService GmbH
PLAYORDER=
